<?xml version="1.0" encoding="UTF-8"?>
<svg version="1.1" xmlns="http://www.w3.org/2000/svg" width="180" height="180">
<path d="M0 0 C0.7734375 0.19851562 1.546875 0.39703125 2.34375 0.6015625 C2.20227385 3.72677521 2.05473753 6.85167569 1.90625 9.9765625 C1.86693359 10.84667969 1.82761719 11.71679688 1.78710938 12.61328125 C1.49721048 18.6342584 1.00100078 24.60969343 0.34375 30.6015625 C10.10894638 25.1985967 19.85606198 19.77176552 29.5234375 14.1953125 C34.20143846 11.55178841 36.84982489 10.23530083 42.34375 10.6015625 C42.67375 10.9315625 43.00375 11.2615625 43.34375 11.6015625 C43.2426951 20.69751398 41.37669715 29.6558435 39.59375 38.5390625 C39.35398438 39.80685547 39.11421875 41.07464844 38.8671875 42.38085938 C36.67035916 53.42728228 33.68711455 63.21461043 27.36328125 72.6015625 C24.62578486 77.13853724 23.94448782 79.69673192 24.98046875 84.9140625 C25.61905223 87.15653783 26.30516585 89.38587158 27.03125 91.6015625 C27.73895266 94.05727915 28.44194079 96.51435853 29.140625 98.97265625 C29.69459961 100.85186768 29.69459961 100.85186768 30.25976562 102.76904297 C32.02539922 109.01159165 33.41672753 115.32377125 34.78125 121.6640625 C35.1683313 123.3646582 35.1683313 123.3646582 35.56323242 125.09960938 C37.07021305 132.03635714 37.67125439 138.50740918 37.34375 145.6015625 C36.35375 145.9315625 35.36375 146.2615625 34.34375 146.6015625 C34.34375 147.2615625 34.34375 147.9215625 34.34375 148.6015625 C32.31102884 150.12534148 30.30095519 151.50091287 28.15625 152.8515625 C27.51913086 153.25415283 26.88201172 153.65674316 26.22558594 154.0715332 C3.84879738 167.93372651 -21.77583534 173.7900345 -47.87792969 173.78686523 C-49.91622161 173.7890733 -51.95398929 173.80735398 -53.9921875 173.82617188 C-55.28898437 173.82810547 -56.58578125 173.83003906 -57.921875 173.83203125 C-59.68192871 173.83819458 -59.68192871 173.83819458 -61.47753906 173.84448242 C-64.61976478 173.60435073 -66.8258104 172.94332913 -69.65625 171.6015625 C-69.19314593 163.92042257 -67.91168993 156.56965474 -66.35546875 149.0390625 C-64.75805024 141.18583185 -64.53619622 133.60514752 -64.65625 125.6015625 C-71.1994549 121.88383244 -76.36365789 122.81459213 -83.65625 123.6015625 C-96.01894023 124.65795866 -96.01894023 124.65795866 -101.28125 121.1015625 C-104.91797355 117.82620472 -106.88152584 114.44130988 -107.65625 109.6015625 C-107.79450296 104.03953976 -105.97974287 99.6203071 -103.65625 94.6015625 C-102.96788487 92.60892659 -102.29343601 90.61114913 -101.65625 88.6015625 C-100.66625 88.6015625 -99.67625 88.6015625 -98.65625 88.6015625 C-95.65625 94.3515625 -95.65625 94.3515625 -95.65625 96.6015625 C-94.91761719 96.09367187 -94.17898437 95.58578125 -93.41796875 95.0625 C-75.05325375 82.6015625 -75.05325375 82.6015625 -70.65625 82.6015625 C-70.93516359 76.32600684 -71.86507448 72.61569786 -75.65625 67.6015625 C-75.65625 66.9415625 -75.65625 66.2815625 -75.65625 65.6015625 C-76.97625 65.2715625 -78.29625 64.9415625 -79.65625 64.6015625 C-80.6155919 65.87163464 -81.57368294 67.14265169 -82.53125 68.4140625 C-83.06492187 69.12175781 -83.59859375 69.82945313 -84.1484375 70.55859375 C-85.36439781 72.20612547 -86.52041141 73.89780461 -87.65625 75.6015625 C-88.64625 75.6015625 -89.63625 75.6015625 -90.65625 75.6015625 C-93.57138882 67.35116962 -93.57138882 67.35116962 -94.03125 63.2890625 C-94.87230443 59.67252845 -96.63987673 58.61247801 -99.65625 56.6015625 C-100.64625 58.9115625 -101.63625 61.2215625 -102.65625 63.6015625 C-106.53125 61.8515625 -106.53125 61.8515625 -107.65625 59.6015625 C-107.9350418 56.35784201 -108.10312219 53.11418151 -108.27734375 49.86328125 C-108.49294065 46.67431536 -108.49294065 46.67431536 -109.671875 44.203125 C-111.03822149 40.59206642 -110.99706659 37.0972278 -110.96875 33.2890625 C-110.96456055 32.53230225 -110.96037109 31.77554199 -110.95605469 30.99584961 C-110.84660105 25.60292915 -110.37765407 21.36401962 -107.65625 16.6015625 C-103.51281697 13.79413838 -100.1168585 14.69436694 -95.41015625 15.56640625 C-89.06044968 17.31736592 -83.13766498 20.05423967 -77.109375 22.6796875 C-70.10363081 25.87758259 -70.10363081 25.87758259 -62.65625 27.6015625 C-60.09934577 26.51900843 -60.09934577 26.51900843 -57.65625 24.6015625 C-49.43677963 21.44022774 -40.16164317 20.19070172 -31.47460938 22.07470703 C-26.99643406 23.02740809 -26.99643406 23.02740809 -22.89404297 21.45117188 C-21.23393112 19.71392979 -19.81755928 17.92094784 -18.40625 15.9765625 C-17.42367365 14.71214189 -16.43932245 13.44909833 -15.453125 12.1875 C-14.75316406 11.26976807 -14.75316406 11.26976807 -14.0390625 10.33349609 C-5.16946819 -0.77542023 -5.16946819 -0.77542023 0 0 Z M27.34375 30.6015625 C21.40874582 34.18140629 16.0975006 38.35449177 10.84375 42.8515625 C10.22032715 43.38297852 9.5969043 43.91439453 8.95458984 44.46191406 C5.70373211 47.16276255 5.70373211 47.16276255 3.34375 50.6015625 C7.14802492 52.8029491 7.14802492 52.8029491 11.34375 53.6015625 C10.71456707 56.43288571 10.01954102 58.14905045 7.5703125 59.7890625 C4.21418717 61.48583962 1.01996469 62.77729912 -2.65625 63.6015625 C-2.83800781 63.0446875 -3.01976563 62.4878125 -3.20703125 61.9140625 C-4.47662676 58.05970074 -5.78030442 54.247411 -7.28125 50.4765625 C-8.40685124 47.6371061 -8.68451569 46.03624875 -8.84375 42.8515625 C-9.35782017 39.29269126 -9.35782017 39.29269126 -12.84375 37.3515625 C-18.85403216 34.84189271 -25.26476553 33.69987746 -31.65625 32.6015625 C-32.63335937 32.43269531 -33.61046875 32.26382813 -34.6171875 32.08984375 C-42.08026131 31.09548005 -49.02309012 32.20747617 -55.7578125 35.6875 C-61.00278436 38.21285682 -66.88049928 36.37669314 -72.21875 35.0390625 C-78.9228555 33.41523072 -83.49027908 33.26650413 -89.59375 36.6640625 C-90.604375 37.3034375 -91.615 37.9428125 -92.65625 38.6015625 C-92.45271219 40.56001308 -92.45271219 40.56001308 -91.65625 42.6015625 C-89.9566253 43.72940936 -89.9566253 43.72940936 -87.7890625 44.3828125 C-86.99097168 44.66511719 -86.19288086 44.94742188 -85.37060547 45.23828125 C-84.51611816 45.52316406 -83.66163086 45.80804688 -82.78125 46.1015625 C-81.4821167 46.55982422 -81.4821167 46.55982422 -80.15673828 47.02734375 C-76.54117309 48.29904863 -72.91325065 49.51865906 -69.265625 50.6953125 C-59.47428486 53.94044237 -51.93815442 59.64809038 -46.65625 68.6015625 C-42.13375835 77.8204878 -40.19766018 87.70641063 -42.34375 97.8515625 C-45.83996338 105.17696197 -52.74006953 108.07685406 -59.65625 111.6015625 C-56.96097732 113.04655229 -54.48545025 114.00398174 -51.50390625 114.671875 C-50.72724609 114.84589844 -49.95058594 115.01992187 -49.15039062 115.19921875 C-47.94672852 115.46025391 -47.94672852 115.46025391 -46.71875 115.7265625 C-45.92017578 115.90832031 -45.12160156 116.09007813 -44.29882812 116.27734375 C-40.35614272 117.14623714 -36.72097692 117.84790959 -32.65625 117.6015625 C-33.67380741 120.26286649 -34.32309861 121.40672306 -36.8203125 122.8671875 C-38.03847656 123.35445312 -38.03847656 123.35445312 -39.28125 123.8515625 C-40.50714844 124.35429687 -40.50714844 124.35429687 -41.7578125 124.8671875 C-42.38429687 125.10953125 -43.01078125 125.351875 -43.65625 125.6015625 C-43.67606934 126.21040283 -43.69588867 126.81924316 -43.71630859 127.4465332 C-44.45781407 149.09972223 -44.45781407 149.09972223 -46.65625 158.6015625 C-26.36548277 157.59421945 -8.36801306 152.62837574 9.34375 142.6015625 C10.86548828 141.85712891 10.86548828 141.85712891 12.41796875 141.09765625 C15.30932085 139.48866115 17.26699321 138.18008604 19.34375 135.6015625 C20.5193672 130.85412472 19.98576688 126.3889476 19.34375 121.6015625 C19.22410889 120.54098633 19.22410889 120.54098633 19.10205078 119.45898438 C17.46592853 105.20179628 13.87796516 91.20420799 9.34375 77.6015625 C8.374375 76.9828125 7.405 76.3640625 6.40625 75.7265625 C3.16490423 73.47746544 2.3757338 72.31670418 1.34375 68.6015625 C2.354375 68.5190625 3.365 68.4365625 4.40625 68.3515625 C11.05682664 67.35933937 15.67472937 63.87795115 19.87915039 58.84863281 C22.76929 54.41441961 23.92546749 49.3573233 25.28125 44.2890625 C25.59642578 43.19271484 25.91160156 42.09636719 26.23632812 40.96679688 C28.1445934 35.71946676 28.1445934 35.71946676 27.34375 30.6015625 Z M-86.65625 56.6015625 C-86.32625 57.5915625 -85.99625 58.5815625 -85.65625 59.6015625 C-84.99625 58.6115625 -84.33625 57.6215625 -83.65625 56.6015625 C-84.64625 56.6015625 -85.63625 56.6015625 -86.65625 56.6015625 Z M-81.65625 99.6015625 C-81.32625 100.2615625 -80.99625 100.9215625 -80.65625 101.6015625 C-75.09157409 101.87797777 -70.73019015 100.9853162 -65.46875 99.2265625 C-64.77072266 99.00484375 -64.07269531 98.783125 -63.35351562 98.5546875 C-59.98432146 97.46474838 -56.75965515 96.31765734 -53.65625 94.6015625 C-54.15381092 91.84514834 -54.15381092 91.84514834 -55.65625 89.6015625 C-66.03008743 88.65848637 -73.87365251 93.07983276 -81.65625 99.6015625 Z M-88.65625 101.6015625 C-88.98625 102.9215625 -89.31625 104.2415625 -89.65625 105.6015625 C-91.96625 105.6015625 -94.27625 105.6015625 -96.65625 105.6015625 C-95.99625 106.2615625 -95.33625 106.9215625 -94.65625 107.6015625 C-92.6630933 107.62532176 -92.6630933 107.62532176 -90.53125 107.2265625 C-89.2525 107.0203125 -87.97375 106.8140625 -86.65625 106.6015625 C-86.98625 104.9515625 -87.31625 103.3015625 -87.65625 101.6015625 C-87.98625 101.6015625 -88.31625 101.6015625 -88.65625 101.6015625 Z " fill="#FFFFFF" transform="translate(123.65625,3.3984375)"/>
<path d="M0 0 C1.734375 1.30078125 1.734375 1.30078125 3.25 2.6875 C3.81203125 3.17605469 4.3740625 3.66460937 4.953125 4.16796875 C6.25 5.6875 6.25 5.6875 6.25 8.6875 C5.0125 8.625625 3.775 8.56375 2.5 8.5 C-0.91051599 8.4362228 -0.91051599 8.4362228 -3.75 10.25 C-6.16100522 11.98291 -6.98514975 11.83698398 -9.875 11.5625 C-13.75 10.6875 -13.75 10.6875 -15.75 7.6875 C-15.75 6.6975 -15.75 5.7075 -15.75 4.6875 C-16.86375 4.543125 -17.9775 4.39875 -19.125 4.25 C-22.75 3.6875 -22.75 3.6875 -24.75 2.6875 C-24.75 1.3675 -24.75 0.0475 -24.75 -1.3125 C-17.05357334 -3.10784236 -6.98881438 -4.33384579 0 0 Z " fill="#FFFFFF" transform="translate(91.75,44.3125)"/>
</svg>
